<mxfile host="app.diagrams.net" agent="Mozilla/5.0 (Windows NT 10.0; Win64; x64) AppleWebKit/537.36 (KHTML, like Gecko) Chrome/129.0.0.0 Safari/537.36" version="24.7.17">
  <diagram name="Page-1" id="RN1XBWH9GI_0Ox_ixJa_">
    <mxGraphModel dx="1232" dy="1097" grid="1" gridSize="10" guides="1" tooltips="1" connect="1" arrows="1" fold="1" page="1" pageScale="1" pageWidth="850" pageHeight="1100" math="0" shadow="0">
      <root>
        <mxCell id="0" />
        <mxCell id="1" parent="0" />
        <mxCell id="M8mYCBqnk3noaDaUtDvl-1" value="" style="strokeWidth=1;shadow=0;dashed=0;align=center;html=1;shape=mxgraph.mockup.containers.browserWindow;rSize=0;strokeColor=#666666;strokeColor2=#008cff;strokeColor3=#c4c4c4;mainText=,;recursiveResize=0;" parent="1" vertex="1">
          <mxGeometry x="40" y="120" width="760" height="940" as="geometry" />
        </mxCell>
        <mxCell id="M8mYCBqnk3noaDaUtDvl-2" value="Air Asia" style="strokeWidth=1;shadow=0;dashed=0;align=center;html=1;shape=mxgraph.mockup.containers.anchor;fontSize=17;fontColor=#666666;align=left;whiteSpace=wrap;" parent="M8mYCBqnk3noaDaUtDvl-1" vertex="1">
          <mxGeometry x="60" y="12" width="110" height="26" as="geometry" />
        </mxCell>
        <mxCell id="M8mYCBqnk3noaDaUtDvl-3" value="https://www.airasia/mileagerewards/card-details.html" style="strokeWidth=1;shadow=0;dashed=0;align=center;html=1;shape=mxgraph.mockup.containers.anchor;rSize=0;fontSize=17;fontColor=#666666;align=left;" parent="M8mYCBqnk3noaDaUtDvl-1" vertex="1">
          <mxGeometry x="130" y="60" width="250" height="26" as="geometry" />
        </mxCell>
        <mxCell id="M8mYCBqnk3noaDaUtDvl-4" value="" style="strokeWidth=1;shadow=0;dashed=0;align=center;html=1;shape=mxgraph.mockup.forms.rrect;rSize=0;strokeColor=#999999;fillColor=#ffffff;" parent="M8mYCBqnk3noaDaUtDvl-1" vertex="1">
          <mxGeometry x="180" y="110" width="420" height="830" as="geometry" />
        </mxCell>
        <mxCell id="M8mYCBqnk3noaDaUtDvl-5" value="&lt;b&gt;Mileage Rewards&lt;/b&gt;&lt;div&gt;&lt;b&gt;Gift Card Details&lt;/b&gt;&lt;/div&gt;" style="strokeWidth=1;shadow=0;dashed=0;align=center;html=1;shape=mxgraph.mockup.forms.anchor;fontSize=12;fontColor=#666666;align=left;resizeWidth=1;spacingLeft=0;" parent="M8mYCBqnk3noaDaUtDvl-4" vertex="1">
          <mxGeometry width="273" height="40" relative="1" as="geometry">
            <mxPoint x="155" y="122" as="offset" />
          </mxGeometry>
        </mxCell>
        <mxCell id="M8mYCBqnk3noaDaUtDvl-6" value="" style="strokeWidth=1;shadow=0;dashed=0;align=center;html=1;shape=mxgraph.mockup.forms.rrect;rSize=0;strokeColor=#999999;fontColor=#666666;align=left;spacingLeft=5;resizeWidth=1;" parent="M8mYCBqnk3noaDaUtDvl-4" vertex="1">
          <mxGeometry width="315" height="310" relative="1" as="geometry">
            <mxPoint x="53" y="234" as="offset" />
          </mxGeometry>
        </mxCell>
        <mxCell id="M8mYCBqnk3noaDaUtDvl-7" value="Card Name: Name&lt;div&gt;&lt;br&gt;&lt;/div&gt;&lt;div&gt;Card Type: Type&lt;/div&gt;&lt;div&gt;&lt;br&gt;&lt;/div&gt;&lt;div&gt;Value: $Value&lt;/div&gt;&lt;div&gt;&lt;br&gt;&lt;/div&gt;&lt;div&gt;Points Required: Points&lt;/div&gt;&lt;div&gt;&lt;br&gt;&lt;/div&gt;&lt;div&gt;Description: Description here&lt;/div&gt;" style="strokeWidth=1;shadow=0;dashed=0;align=center;html=1;shape=mxgraph.mockup.forms.anchor;fontSize=12;fontColor=#666666;align=left;resizeWidth=1;spacingLeft=0;" parent="M8mYCBqnk3noaDaUtDvl-4" vertex="1">
          <mxGeometry width="210" height="130" relative="1" as="geometry">
            <mxPoint x="73" y="388" as="offset" />
          </mxGeometry>
        </mxCell>
        <mxCell id="M8mYCBqnk3noaDaUtDvl-8" value="" style="ellipse;whiteSpace=wrap;html=1;aspect=fixed;" parent="M8mYCBqnk3noaDaUtDvl-4" vertex="1">
          <mxGeometry x="163.98000000000002" y="34.303030303030305" width="80" height="80" as="geometry" />
        </mxCell>
        <mxCell id="M8mYCBqnk3noaDaUtDvl-9" value="Logo" style="text;strokeColor=none;fillColor=none;html=1;fontSize=24;fontStyle=1;verticalAlign=middle;align=center;" parent="M8mYCBqnk3noaDaUtDvl-4" vertex="1">
          <mxGeometry x="100" y="51.61" width="210" height="45.39" as="geometry" />
        </mxCell>
        <mxCell id="M8mYCBqnk3noaDaUtDvl-10" value="Card-Update" style="strokeWidth=1;shadow=0;dashed=0;align=center;html=1;shape=mxgraph.mockup.forms.rrect;rSize=5;strokeColor=none;fontColor=#ffffff;fillColor=#66bbff;fontSize=16;fontStyle=1;" parent="M8mYCBqnk3noaDaUtDvl-4" vertex="1">
          <mxGeometry x="53.18" y="187.3" width="106.82" height="30" as="geometry" />
        </mxCell>
        <mxCell id="M8mYCBqnk3noaDaUtDvl-11" value="Card-Delete" style="strokeWidth=1;shadow=0;dashed=0;align=center;html=1;shape=mxgraph.mockup.forms.rrect;rSize=5;strokeColor=none;fontColor=#ffffff;fillColor=#66bbff;fontSize=16;fontStyle=1;" parent="M8mYCBqnk3noaDaUtDvl-4" vertex="1">
          <mxGeometry x="260" y="187.3" width="108" height="30" as="geometry" />
        </mxCell>
        <mxCell id="M8mYCBqnk3noaDaUtDvl-12" value="" style="verticalLabelPosition=bottom;shadow=0;dashed=0;align=center;html=1;verticalAlign=top;strokeWidth=1;shape=mxgraph.mockup.graphics.simpleIcon;strokeColor=#999999;" parent="M8mYCBqnk3noaDaUtDvl-4" vertex="1">
          <mxGeometry x="147.5" y="268" width="135" height="90" as="geometry" />
        </mxCell>
        <mxCell id="M8mYCBqnk3noaDaUtDvl-22" value="Air Asia Mileage Rewards Redemption [Card Details Page]" style="text;strokeColor=none;fillColor=none;html=1;fontSize=24;fontStyle=1;verticalAlign=middle;align=center;" parent="1" vertex="1">
          <mxGeometry x="375" y="40" width="100" height="60" as="geometry" />
        </mxCell>
      </root>
    </mxGraphModel>
  </diagram>
</mxfile>
